<svg xmlns="http://www.w3.org/2000/svg" height="40" viewBox="0 -960 960 960" width="40"><path d="M478.72-732q-34.053 0-58.053-23.947t-24-58q0-34.053 23.947-58.053t58-24q34.053 0 58.053 23.947 23.999 23.947 23.999 58T536.72-756q-23.947 24-58 24ZM354-69.333v-527.334q-65.333-5-129.666-15Q160-621.667 100-637.334l20.667-83.999Q205-699.666 295.333-690.166q90.334 9.5 183.334 9.5t184.666-9.5q91.667-9.5 176-31.167L860-637.334q-60 15.667-124.334 25.667-64.333 10-129.666 15.082v527.252h-84v-253.334h-84v253.333h-84Z"/></svg>